# xmcd
#
# Track frame offsets: 
#        150
#        19626
#        40414
#        57981
#        75465
#        94385
#        110375
#        124214
#        154907
#        178082
#        207450
#
# Disc length: 3023 seconds
#
# Revision: 0
# Processed by: cddbd v1.5.2PL0 Copyright (c) Steve Scherf et al.
# Submitted via: ExactAudioCopy v1.0b1
#
DISCID=940bcd0b
DTITLE=Tor Wold - Konsert på Lille London juni 2011
DYEAR=2011
DGENRE=Folk
TTITLE0=Good Morning Little Schoolgirl
TTITLE1=Three Hundred Pounds of Joy
TTITLE2=Kameratan min
TTITLE3=I Feel So Good
TTITLE4=Fusk og fant
TTITLE5=Diddie Wah Diddie
TTITLE6=Fishin' Blues
TTITLE7=Klokka på veggen
TTITLE8=Who's Been Talking
TTITLE9=Little Red Rooster
TTITLE10=Susie Q
EXTD=
EXTT0=
EXTT1=
EXTT2=
EXTT3=
EXTT4=
EXTT5=
EXTT6=
EXTT7=
EXTT8=
EXTT9=
EXTT10=
PLAYORDER=
